<svg xmlns="http://www.w3.org/2000/svg" viewBox="0 0 135 40"><defs><style>.a{fill:#a6a6a6;}.b{fill:#fff;}.c{fill:none;stroke:#fff;stroke-miterlimit:10;stroke-width:3px;}.d{fill:#020202;}</style></defs><rect width="135" height="40" rx="5"/><path class="a" d="M130,.8A4.2,4.2,0,0,1,134.2,5V35a4.2,4.2,0,0,1-4.2,4.2H5A4.2,4.2,0,0,1,.8,35h0V5A4.2,4.2,0,0,1,5,.8H130m0-.8H5A5,5,0,0,0,0,5V35a5,5,0,0,0,5,5H130a5,5,0,0,0,5-5V5A5,5,0,0,0,130,0Z" transform="translate(0)"/><path class="b" d="M50.89,10.2a4.32,4.32,0,0,1-1.15,3.24,4.56,4.56,0,0,1-3.32,1.13H44.05V6h2.63a4.19,4.19,0,0,1,3.1,1.11A4.18,4.18,0,0,1,50.89,10.2Zm-1.06,0A3.46,3.46,0,0,0,49,7.71a3.39,3.39,0,0,0-2.5-.85H45.05v6.85h1.21a3.71,3.71,0,0,0,2.68-.88A3.45,3.45,0,0,0,49.83,10.24Z" transform="translate(0)"/><path class="b" d="M52.57,6.4a.66.66,0,0,1,.16-.48.61.61,0,0,1,.82,0,.64.64,0,0,1,.17.48.65.65,0,0,1-.17.49.58.58,0,0,1-.82,0A.69.69,0,0,1,52.57,6.4Zm1.06,8.17h-1V8.15h1Z" transform="translate(0)"/><path class="b" d="M59.83,12.81a1.62,1.62,0,0,1-.67,1.39,3.15,3.15,0,0,1-1.87.48,4.12,4.12,0,0,1-2-.4v-.9a5.16,5.16,0,0,0,1,.37,4.08,4.08,0,0,0,1,.13,2.32,2.32,0,0,0,1.17-.24.79.79,0,0,0,.41-.74.8.8,0,0,0-.32-.64,5,5,0,0,0-1.27-.63A7.32,7.32,0,0,1,56,11a1.66,1.66,0,0,1-.56-.56,1.53,1.53,0,0,1-.18-.76,1.43,1.43,0,0,1,.64-1.24A3,3,0,0,1,57.67,8a5.16,5.16,0,0,1,2,.42l-.35.79a4.76,4.76,0,0,0-1.75-.4,2,2,0,0,0-1.05.22.67.67,0,0,0-.35.6.79.79,0,0,0,.13.44,1.32,1.32,0,0,0,.43.34,10.25,10.25,0,0,0,1.12.48,4.11,4.11,0,0,1,1.55.83A1.49,1.49,0,0,1,59.83,12.81Z" transform="translate(0)"/><path class="b" d="M64.4,14.68a2.72,2.72,0,0,1-1.15-.23,2.19,2.19,0,0,1-.87-.71h-.07a8.11,8.11,0,0,1,.07,1.07v2.64h-1V8.15h.79l.14.87h0a2.33,2.33,0,0,1,.88-.76A2.73,2.73,0,0,1,64.4,8a2.37,2.37,0,0,1,2,.87,3.86,3.86,0,0,1,.7,2.45,3.85,3.85,0,0,1-.71,2.46A2.38,2.38,0,0,1,64.4,14.68Zm-.14-5.83a1.72,1.72,0,0,0-1.42.55,2.75,2.75,0,0,0-.46,1.73v.22a3.23,3.23,0,0,0,.46,1.94,1.7,1.7,0,0,0,1.44.58,1.51,1.51,0,0,0,1.31-.67,3.24,3.24,0,0,0,.47-1.86,3.08,3.08,0,0,0-.47-1.84A1.57,1.57,0,0,0,64.26,8.85Z" transform="translate(0)"/><path class="b" d="M74.31,11.35a3.57,3.57,0,0,1-.79,2.45,2.79,2.79,0,0,1-2.19.88,2.91,2.91,0,0,1-1.53-.4,2.71,2.71,0,0,1-1-1.16,4.05,4.05,0,0,1-.36-1.77,3.57,3.57,0,0,1,.78-2.45A2.8,2.8,0,0,1,71.37,8a2.72,2.72,0,0,1,2.14.89A3.54,3.54,0,0,1,74.31,11.35Zm-4.89,0a3.05,3.05,0,0,0,.49,1.88,2,2,0,0,0,2.9,0,3.05,3.05,0,0,0,.49-1.88,3,3,0,0,0-.49-1.86,1.76,1.76,0,0,0-1.47-.64,1.72,1.72,0,0,0-1.44.63A3.05,3.05,0,0,0,69.42,11.35Z" transform="translate(0)"/><path class="b" d="M80.41,14.57V10.41a1.67,1.67,0,0,0-.36-1.17,1.45,1.45,0,0,0-1.12-.39,1.84,1.84,0,0,0-1.47.55A2.7,2.7,0,0,0,77,11.2v3.37H76V8.15h.79L77,9H77a2,2,0,0,1,.84-.73A2.64,2.64,0,0,1,79.05,8a2.4,2.4,0,0,1,1.74.56,2.34,2.34,0,0,1,.59,1.79v4.19Z" transform="translate(0)"/><path class="b" d="M83.3,6.4a.62.62,0,0,1,.16-.48.56.56,0,0,1,.41-.16.57.57,0,0,1,.41.16.64.64,0,0,1,.17.48.65.65,0,0,1-.17.49.58.58,0,0,1-.41.17.57.57,0,0,1-.41-.17A.64.64,0,0,1,83.3,6.4Zm1,8.17h-1V8.15h1Z" transform="translate(0)"/><path class="b" d="M89.4,8a2.41,2.41,0,0,1,2,.86,3.86,3.86,0,0,1,.7,2.45,3.85,3.85,0,0,1-.71,2.46,2.38,2.38,0,0,1-2,.87,2.64,2.64,0,0,1-1.14-.23,2.06,2.06,0,0,1-.87-.71h-.07l-.21.83h-.7V5.45h1V7.66c0,.5,0,.95,0,1.34h0A2.3,2.3,0,0,1,89.4,8Zm-.14.81a1.67,1.67,0,0,0-1.43.58,3.16,3.16,0,0,0-.44,1.92,3.24,3.24,0,0,0,.45,1.94,1.71,1.71,0,0,0,1.45.58,1.51,1.51,0,0,0,1.33-.65,3.42,3.42,0,0,0,.44-1.88,3.24,3.24,0,0,0-.44-1.87A1.55,1.55,0,0,0,89.26,8.85Z" transform="translate(0)"/><path class="b" d="M94.74,14.57h-1V5.45h1Z" transform="translate(0)"/><path class="b" d="M99.52,14.68a3,3,0,0,1-2.25-.86,3.35,3.35,0,0,1-.82-2.41,3.72,3.72,0,0,1,.76-2.47A2.53,2.53,0,0,1,99.26,8a2.4,2.4,0,0,1,1.91.79,3.05,3.05,0,0,1,.71,2.1v.61H97.45A2.55,2.55,0,0,0,98,13.25a2,2,0,0,0,1.53.58,5.13,5.13,0,0,0,2-.43v.87a5.48,5.48,0,0,1-1,.32A5.93,5.93,0,0,1,99.52,14.68Zm-.27-5.84A1.58,1.58,0,0,0,98,9.35a2.25,2.25,0,0,0-.54,1.39h3.35a2.12,2.12,0,0,0-.41-1.41A1.45,1.45,0,0,0,99.25,8.84Z" transform="translate(0)"/><path class="b" d="M109.37,14.68a3,3,0,0,1-2.25-.86,3.36,3.36,0,0,1-.83-2.41,3.73,3.73,0,0,1,.77-2.47,2.53,2.53,0,0,1,2-.91,2.41,2.41,0,0,1,1.91.79,3.05,3.05,0,0,1,.71,2.1v.61H107.3a2.55,2.55,0,0,0,.57,1.72,2,2,0,0,0,1.53.58,5.13,5.13,0,0,0,2-.43v.87a5.48,5.48,0,0,1-1,.32A5.93,5.93,0,0,1,109.37,14.68Zm-.27-5.84a1.57,1.57,0,0,0-1.23.51,2.25,2.25,0,0,0-.54,1.39h3.35a2.12,2.12,0,0,0-.41-1.41A1.45,1.45,0,0,0,109.1,8.84Z" transform="translate(0)"/><path class="b" d="M117.78,14.57V10.41a1.67,1.67,0,0,0-.36-1.17,1.45,1.45,0,0,0-1.12-.39,1.84,1.84,0,0,0-1.47.55,2.7,2.7,0,0,0-.47,1.8v3.37h-1V8.15h.8l.15.87h0a2,2,0,0,1,.84-.73,2.64,2.64,0,0,1,1.2-.26,2.42,2.42,0,0,1,1.75.56,2.38,2.38,0,0,1,.58,1.79v4.19Z" transform="translate(0)"/><path class="b" d="M52.28,22.56a3.7,3.7,0,0,1-1.23,3,5.22,5.22,0,0,1-3.48,1h-1.1v4.32H43.89V18.78h3.88a5.19,5.19,0,0,1,3.36.95A3.48,3.48,0,0,1,52.28,22.56Zm-5.81,1.93h.84A2.84,2.84,0,0,0,49.09,24a1.65,1.65,0,0,0,.59-1.36,1.72,1.72,0,0,0-.49-1.34,2.31,2.31,0,0,0-1.55-.43H46.47Z" transform="translate(0)"/><path class="b" d="M59.72,20.75a2.61,2.61,0,0,0-2.25,1.09,5.09,5.09,0,0,0-.79,3q0,4.07,3,4.06a9.5,9.5,0,0,0,3.1-.64v2.16a8.72,8.72,0,0,1-3.34.62,5.07,5.07,0,0,1-4-1.61A6.81,6.81,0,0,1,54,24.86a7.5,7.5,0,0,1,.69-3.31,5,5,0,0,1,2-2.19,5.91,5.91,0,0,1,3-.76,8.2,8.2,0,0,1,3.56.86l-.83,2.09c-.46-.21-.91-.4-1.37-.56A4.11,4.11,0,0,0,59.72,20.75Z" transform="translate(0)"/><rect class="b" x="7.3" y="9.53" width="10.82" height="21.83"/><rect class="c" x="14.62" y="7.54" width="22.6" height="14.97"/><rect class="d" x="14.62" y="7.54" width="22.6" height="14.97"/><path class="c" d="M25.11,28.71l1.62,1.15H25.11V28.71Zm1.62,0-1.62,1.15h1.62V28.71Z" transform="translate(0)"/><rect class="d" x="8.8" y="13.46" width="4.25" height="1.45"/><rect class="d" x="8.8" y="11.08" width="4.25" height="1.45"/><circle class="d" cx="12.71" cy="27.48" r="1.28"/><rect class="b" x="23.6" y="22.75" width="4.64" height="8.61"/></svg>